<svg width="250" height="73" viewBox="0 0 250 73" fill="none" xmlns="http://www.w3.org/2000/svg">
<g clip-path="url(#clip0_32_153)">
<path d="M114.702 61.505C114.223 62.0579 113.643 62.5149 112.993 62.8517C112.32 63.2058 111.57 63.389 110.809 63.3849C110.115 63.3881 109.428 63.2418 108.796 62.9559C108.177 62.6769 107.617 62.2818 107.147 61.7921C106.673 61.2916 106.296 60.7075 106.036 60.0694C105.486 58.7336 105.486 57.2351 106.036 55.8993C106.298 55.2661 106.674 54.6867 107.147 54.1903C107.618 53.7015 108.177 53.3066 108.796 53.0264C109.429 52.7421 110.115 52.5959 110.809 52.5974C111.456 52.5952 112.097 52.7291 112.689 52.9905C113.251 53.242 113.77 53.5806 114.227 53.9937L113.362 55.1029C113.033 54.7662 112.653 54.4846 112.234 54.2689C111.792 54.0431 111.302 53.9259 110.806 53.9271C110.305 53.9251 109.81 54.0367 109.358 54.2535C108.914 54.4688 108.516 54.769 108.187 55.1371C107.852 55.5206 107.583 55.958 107.393 56.4308C107.003 57.4375 107.003 58.5534 107.393 59.5601C107.583 60.0295 107.851 60.463 108.187 60.8418C108.517 61.2058 108.915 61.5014 109.358 61.7117C109.811 61.9235 110.305 62.032 110.806 62.0296C111.376 62.0322 111.937 61.8867 112.434 61.6075C112.916 61.335 113.336 60.9668 113.67 60.5257L114.702 61.505Z" fill="white"/>
<path d="M136.381 55.8856C136.116 55.2519 135.736 54.6726 135.26 54.1765C134.789 53.6867 134.229 53.2917 133.609 53.0127C132.975 52.7302 132.288 52.5842 131.593 52.5842C130.899 52.5842 130.212 52.7302 129.578 53.0127C128.957 53.2924 128.394 53.6873 127.92 54.1765C127.443 54.6713 127.063 55.2509 126.799 55.8856C126.256 57.2233 126.256 58.7197 126.799 60.0573C127.059 60.6913 127.436 61.2709 127.91 61.7664C128.382 62.2564 128.943 62.6515 129.564 62.9302C130.197 63.2142 130.883 63.361 131.577 63.361C132.271 63.361 132.957 63.2142 133.591 62.9302C134.213 62.6508 134.776 62.2558 135.252 61.7664C135.731 61.2721 136.114 60.6924 136.38 60.0573C136.654 59.3962 136.795 58.6875 136.796 57.9716C136.796 57.2558 136.655 56.5469 136.381 55.8856ZM135 59.531C134.82 60.0026 134.553 60.4362 134.213 60.8093C133.881 61.1688 133.482 61.4592 133.038 61.6638C132.581 61.8674 132.086 61.9726 131.586 61.9726C131.085 61.9726 130.59 61.8674 130.133 61.6638C129.689 61.4592 129.29 61.1688 128.959 60.8093C128.619 60.4348 128.35 60.0016 128.164 59.531C127.768 58.5291 127.768 57.4138 128.164 56.412C128.351 55.9443 128.62 55.5141 128.959 55.1421C129.29 54.7827 129.689 54.4923 130.133 54.2876C130.59 54.0841 131.085 53.9789 131.586 53.9789C132.086 53.9789 132.581 54.0841 133.038 54.2876C133.482 54.4923 133.881 54.7827 134.213 55.1421C134.551 55.5133 134.818 55.9438 135 56.412C135.193 56.9089 135.29 57.4377 135.286 57.9706C135.289 58.5058 135.191 59.0368 134.999 59.5361L135 59.531Z" fill="white"/>
<path d="M156.136 52.7273V59.5293C156.139 60.0447 156.037 60.5553 155.835 61.0298C155.641 61.4856 155.363 61.9007 155.015 62.2535C154.668 62.6054 154.256 62.8863 153.802 63.0807C153.33 63.2814 152.823 63.3849 152.31 63.3849C151.798 63.3849 151.291 63.2814 150.819 63.0807C150.365 62.8863 149.953 62.6054 149.606 62.2535C149.259 61.8998 148.981 61.4849 148.786 61.0298C148.584 60.5553 148.482 60.0447 148.485 59.5293V52.7273H149.963V59.5293C149.962 59.8471 150.024 60.1619 150.146 60.4556C150.265 60.7446 150.435 61.0101 150.647 61.24C150.86 61.4675 151.115 61.6515 151.399 61.7818C151.688 61.9135 152.002 61.9805 152.32 61.9783C152.635 61.9803 152.946 61.9132 153.233 61.7818C153.512 61.6499 153.764 61.4661 153.974 61.24C154.188 61.0119 154.358 60.7459 154.475 60.4556C154.597 60.1619 154.659 59.8471 154.658 59.5293V52.7273H156.136Z" fill="white"/>
<path d="M175.065 52.7273V54.0398H172.179V63.2345H170.697V54.0398H167.829V52.7273H175.065Z" fill="white"/>
<path d="M194.405 52.7273V59.5293C194.408 60.0447 194.306 60.5553 194.104 61.0298C193.907 61.4851 193.628 61.9 193.28 62.2535C192.935 62.6059 192.524 62.887 192.07 63.0807C191.599 63.2814 191.092 63.3849 190.579 63.3849C190.067 63.3849 189.56 63.2814 189.088 63.0807C188.634 62.8863 188.222 62.6054 187.875 62.2535C187.527 61.9002 187.249 61.4852 187.054 61.0298C186.852 60.5556 186.748 60.045 186.75 59.5293V52.7273H188.232V59.5293C188.231 59.8471 188.293 60.1619 188.415 60.4556C188.532 60.7451 188.7 61.0109 188.912 61.24C189.126 61.4668 189.381 61.6506 189.664 61.7818C189.953 61.9128 190.268 61.9798 190.585 61.9783C190.9 61.9809 191.212 61.9138 191.498 61.7818C191.779 61.6512 192.032 61.4672 192.243 61.24C192.455 61.0101 192.624 60.7446 192.744 60.4556C192.865 60.1619 192.927 59.8471 192.927 59.5293V52.7273H194.405Z" fill="white"/>
<path d="M211.131 58.5466L211.193 58.5278C211.502 58.4402 211.796 58.3041 212.063 58.1245C212.322 57.9467 212.552 57.7306 212.746 57.4836C212.939 57.2345 213.092 56.9565 213.198 56.6598C213.306 56.3466 213.361 56.0172 213.358 55.6857C213.361 55.2889 213.281 54.8959 213.122 54.532C212.97 54.1821 212.753 53.8642 212.481 53.5955C212.204 53.3277 211.881 53.1128 211.526 52.9614C211.155 52.807 210.757 52.728 210.355 52.729H206.095V63.2345H207.573V58.6611H209.496L209.506 58.6782L212.828 63.2345H214.672L211.131 58.5466ZM210.355 57.2853L207.573 57.3007V54.0279H210.355C210.567 54.0275 210.777 54.0712 210.971 54.1561C211.159 54.2418 211.328 54.3625 211.471 54.5115C211.61 54.6624 211.721 54.8358 211.801 55.0243C211.884 55.2235 211.925 55.4375 211.923 55.6532C211.925 55.8716 211.883 56.0882 211.801 56.2907C211.721 56.4816 211.605 56.6556 211.459 56.8034C211.318 56.9494 211.149 57.0656 210.962 57.1452C210.772 57.2348 210.565 57.2826 210.355 57.2853Z" fill="white"/>
<path d="M226.537 54.0398V57.0153H230.915V58.3757H226.537V61.8741H231.457V63.2345H225.058V52.7273H231.457V54.0398H226.537Z" fill="white"/>
<path d="M250 13.8363V9.18091H237.085H232.429V37.5715H236.669H249.993V32.916H237.085V25.01H248.537V20.3563H237.085V13.8363H250Z" fill="white"/>
<path d="M225.157 9.18091H220.504V37.5698H225.157V9.18091Z" fill="white"/>
<path d="M212.832 35.1053C212.094 35.1243 211.363 34.9574 210.706 34.62C210.06 34.2555 209.487 33.7732 209.019 33.198C208.438 32.4952 207.931 31.7347 207.505 30.9284C207.054 30.0978 206.549 29.1134 205.967 27.9274C205.673 27.3412 205.351 26.7139 204.962 25.9654C204.721 25.5039 204.463 25.0562 204.201 24.634L203.991 24.2922L204.263 23.9914C204.538 23.6907 204.811 23.3711 205.08 23.0395C205.505 22.5046 205.934 21.9543 206.332 21.4022C207.637 19.5473 208.689 17.5272 209.462 15.395C210.167 13.4739 210.536 11.4459 210.554 9.39967V9.17749H205.828V9.39967C205.805 10.9577 205.52 12.5008 204.986 13.9645C204.384 15.6475 203.546 17.2363 202.497 18.6832C202.193 19.078 201.911 19.4471 201.631 19.7975L201.578 19.8692C201.516 19.941 201.46 20.0162 201.407 20.0914L201.065 20.4982L200.653 20.1564C200.561 20.0777 200.464 20.0025 200.371 19.9308C200.02 19.6596 199.656 19.4063 199.279 19.172C198.963 18.9628 198.631 18.7788 198.286 18.6216C196.886 17.909 195.996 17.815 195.996 17.815V9.18091H191.359V17.627C191.359 17.627 191.238 17.656 191.033 17.7244C190.981 17.739 190.929 17.7567 190.879 17.7774L190.742 17.8286C190.526 17.9126 190.316 18.0113 190.114 18.1243L189.943 18.2251C189.886 18.261 189.825 18.2935 189.772 18.3328C189.048 18.8159 188.443 19.4561 188.001 20.2056C187.559 20.9552 187.292 21.7948 187.22 22.6618C187.201 22.8584 187.191 23.0549 187.191 23.2548C187.191 23.4052 187.191 23.5522 187.208 23.6924C187.211 23.7834 187.22 23.8741 187.234 23.9641C187.324 24.9026 187.644 25.8046 188.164 26.5911C188.683 27.3777 189.388 28.0248 190.216 28.476C190.234 28.4819 190.25 28.4899 190.266 28.4999C190.348 28.5392 190.437 28.5785 190.513 28.6144C190.681 28.6892 190.852 28.7553 191.026 28.8126L191.081 28.8297C191.137 28.8485 191.192 28.8622 191.252 28.8793C191.312 28.8964 191.32 28.8981 191.356 28.9049V37.5715H195.993V28.8827C197.135 28.7602 198.248 28.4429 199.283 27.9445L199.332 27.9239C199.364 27.9054 199.396 27.8888 199.43 27.8744C199.755 27.7089 200.072 27.5258 200.378 27.3258L200.643 27.8231C200.757 28.035 200.869 28.2452 200.985 28.4537C201.246 28.9665 201.495 29.4877 201.733 30.0175L201.747 30.05C202.284 31.125 202.865 32.2376 203.456 33.345C204.064 34.4797 204.807 35.5372 205.668 36.4948C206.533 37.4502 207.558 38.2487 208.696 38.855C209.863 39.4771 211.259 39.7915 212.832 39.7915H213.233V35.1053H212.832ZM198.281 23.8103C198.042 23.9385 197.768 24.0752 197.44 24.2153C196.996 24.4079 196.545 24.5788 196.087 24.728C195.638 24.8722 195.181 24.9909 194.719 25.0835C194.316 25.1667 193.906 25.2119 193.494 25.2185C193.441 25.2185 193.268 25.2185 193.215 25.2185C192.274 25.2185 191.506 24.4033 191.496 23.3933V23.3711C191.497 23.2864 191.503 23.202 191.515 23.1181C191.517 23.0784 191.523 23.039 191.532 23.0002C191.569 22.7648 191.656 22.5399 191.787 22.3405C191.819 22.2909 191.855 22.2397 191.891 22.1935C191.926 22.1447 191.965 22.0995 192.009 22.0585C192.089 21.968 192.18 21.8882 192.281 21.821C192.528 21.6474 192.82 21.5479 193.121 21.5338C193.174 21.5338 193.292 21.5338 193.318 21.5338C194.292 21.5532 195.251 21.7743 196.134 22.1833C196.916 22.5044 197.647 22.9342 198.308 23.4599C198.394 23.5283 198.479 23.6001 198.556 23.6719C198.467 23.706 198.378 23.7556 198.281 23.8103Z" fill="white"/>
<path d="M178.83 17.8629C178.143 16.1938 177.156 14.665 175.917 13.3527C174.685 12.0622 173.215 11.0227 171.588 10.2918C169.936 9.55492 168.148 9.17407 166.339 9.17407C164.531 9.17407 162.742 9.55492 161.091 10.2918C159.472 11.0197 158.012 12.0585 156.794 13.3493C155.56 14.6651 154.575 16.1945 153.889 17.8629C153.174 19.597 152.811 21.4561 152.822 23.3318C152.817 25.207 153.179 27.065 153.889 28.8007C154.571 30.4822 155.556 32.0242 156.794 33.3502C158.017 34.6437 159.478 35.6883 161.097 36.4265C162.744 37.1743 164.532 37.5612 166.341 37.5612C168.149 37.5612 169.937 37.1743 171.584 36.4265C173.208 35.6853 174.676 34.6412 175.91 33.3502C177.154 32.0268 178.142 30.4842 178.824 28.8007C179.534 27.0651 179.896 25.207 179.89 23.3318C179.904 21.4565 179.544 19.5973 178.83 17.8629ZM174.452 27.0216C174.019 28.131 173.387 29.1517 172.586 30.0329C171.802 30.8948 170.858 31.5945 169.805 32.0923C168.729 32.5944 167.556 32.8545 166.368 32.8545C165.181 32.8545 164.007 32.5944 162.931 32.0923C161.877 31.5946 160.931 30.8949 160.146 30.0329C158.485 28.1997 157.576 25.8072 157.602 23.3335C157.596 22.0665 157.828 20.8097 158.286 19.6283C158.718 18.5121 159.35 17.4845 160.152 16.5965C160.936 15.7328 161.879 15.0298 162.931 14.5268C164.008 14.027 165.181 13.768 166.368 13.768C167.555 13.768 168.728 14.027 169.805 14.5268C170.857 15.0271 171.802 15.7278 172.586 16.5896C173.389 17.4772 174.023 18.5049 174.455 19.6215C174.913 20.8029 175.145 22.0597 175.139 23.3267C175.146 24.5907 174.913 25.8447 174.452 27.0216Z" fill="white"/>
<path d="M144.499 17.8629C143.815 16.1944 142.83 14.6657 141.594 13.3527C140.365 12.0626 138.897 11.0231 137.272 10.2918C135.62 9.55492 133.832 9.17407 132.023 9.17407C130.215 9.17407 128.426 9.55492 126.775 10.2918C125.153 11.0191 123.691 12.058 122.47 13.3493C121.238 14.6653 120.257 16.1949 119.575 17.8629C118.858 19.5967 118.495 21.4559 118.506 23.3318C118.501 25.2071 118.864 27.0653 119.575 28.8007C120.253 30.4818 121.234 32.0239 122.47 33.3502C123.692 34.6437 125.154 35.6883 126.773 36.4265C128.42 37.1743 130.208 37.5612 132.016 37.5612C133.825 37.5612 135.613 37.1743 137.26 36.4265C138.884 35.6857 140.352 34.6416 141.585 33.3502C142.826 32.0261 143.811 30.4836 144.491 28.8007C145.201 27.0651 145.563 25.207 145.557 23.3318C145.572 21.4566 145.212 19.5974 144.499 17.8629ZM140.121 27.0216C139.69 28.1305 139.06 29.1511 138.261 30.0329C137.478 30.8948 136.532 31.5945 135.479 32.0923C134.403 32.5944 133.23 32.8545 132.042 32.8545C130.855 32.8545 129.681 32.5944 128.605 32.0923C127.551 31.5946 126.604 30.8949 125.819 30.0329C124.164 28.1966 123.257 25.806 123.278 23.3335C123.272 22.0665 123.504 20.8097 123.962 19.6283C124.391 18.5116 125.024 17.4838 125.826 16.5965C126.608 15.7333 127.55 15.0304 128.6 14.5268C129.677 14.027 130.85 13.768 132.037 13.768C133.224 13.768 134.397 14.027 135.474 14.5268C136.529 15.0285 137.476 15.7316 138.261 16.5965C139.064 17.4841 139.698 18.5118 140.129 19.6283C140.587 20.8097 140.819 22.0665 140.813 23.3335C140.818 24.5956 140.583 25.8471 140.121 27.0216Z" fill="white"/>
<path d="M111.236 32.0804C109.907 33.7224 108.26 35.0791 106.395 36.0693C104.542 37.0472 102.482 37.5642 100.387 37.5767C98.5934 37.587 96.8196 37.1994 95.1935 36.4419C93.5944 35.6996 92.154 34.6549 90.9516 33.3656C89.7333 32.0466 88.7717 30.5118 88.1164 28.8401C87.4272 27.0878 87.0791 25.2199 87.0909 23.337C87.0795 21.4616 87.4408 19.6026 88.154 17.8681C88.8429 16.2009 89.8271 14.6719 91.0593 13.3545C92.2764 12.0634 93.7358 11.0244 95.3541 10.297C97.0041 9.55306 98.7944 9.17191 100.604 9.1793C102.292 9.17334 103.965 9.50091 105.526 10.1432C106.916 10.7157 108.302 11.6506 109.657 12.9204L106.95 16.1915C105.943 15.337 104.962 14.7422 104.033 14.409C102.929 14.0122 101.765 13.8109 100.592 13.8142C99.3965 13.81 98.2143 14.069 97.1298 14.573C96.0709 15.0658 95.1165 15.7574 94.3185 16.6102C93.5073 17.4889 92.8695 18.5129 92.4385 19.6284C91.9792 20.8093 91.7473 22.0665 91.7549 23.3336C91.7454 24.5953 91.9774 25.8472 92.4385 27.0217C92.8718 28.1312 93.505 29.1519 94.3065 30.033C95.0989 30.9002 96.0557 31.6014 97.1213 32.0958C98.2055 32.6007 99.3878 32.8598 100.584 32.8546C102.018 32.8478 103.433 32.5171 104.721 31.8873C105.885 31.3319 107.063 30.4449 108.233 29.2417L111.236 32.0804Z" fill="white"/>
<path d="M72.5214 34.9549C72.5189 34.9032 72.5051 34.8526 72.481 34.8068C72.4569 34.7609 72.4231 34.7209 72.3819 34.6894C72.3407 34.658 72.2931 34.636 72.2425 34.6249C72.1919 34.6137 72.1395 34.6138 72.089 34.6251C70.6753 34.9049 69.2147 34.8333 67.8352 34.4166C66.32 33.9568 64.9556 33.0996 63.8839 31.9341C62.8121 30.7686 62.0721 29.3373 61.7407 27.7889C61.6292 27.2681 61.3423 26.8013 60.9279 26.4666C60.5136 26.1319 59.9969 25.9495 59.4643 25.95H59.4181C57.2219 25.9511 55.0643 25.3725 53.1633 24.2726C51.2624 23.1726 49.6855 21.5904 48.592 19.6857C47.4985 17.781 46.9272 15.6215 46.9358 13.4252C46.9444 11.229 47.5326 9.07397 48.6409 7.17792C49.3784 5.92579 50.3259 4.81001 51.4421 3.87947C51.4873 3.84061 51.5221 3.79099 51.5431 3.73516C51.5642 3.67933 51.5709 3.61911 51.5625 3.56003C51.5542 3.50096 51.5311 3.44493 51.4954 3.39712C51.4597 3.3493 51.4126 3.31124 51.3583 3.28644C50.0251 2.67262 48.6553 2.1418 47.2566 1.69703C47.1913 1.67687 47.1217 1.6753 47.0556 1.69251C46.9895 1.70972 46.9295 1.74502 46.8823 1.79445C45.8076 2.95033 44.8957 4.2475 44.1718 5.65004C42.9081 8.11561 42.2609 10.8508 42.2858 13.6213C42.3108 16.3917 43.0069 19.1148 44.3148 21.5573C45.6226 23.9998 47.5031 26.0887 49.7951 27.6452C52.0872 29.2017 54.7224 30.1794 57.475 30.4943C57.5389 30.5021 57.5994 30.5272 57.6501 30.567C57.7007 30.6068 57.7394 30.6597 57.7621 30.7199C58.7273 33.2837 60.4511 35.4922 62.7036 37.0513C64.9561 38.6104 67.6303 39.4458 70.3697 39.4463C70.9582 39.4459 71.5462 39.4082 72.13 39.3335C72.2113 39.3222 72.2864 39.2835 72.343 39.2239C72.3995 39.1643 72.4341 39.0872 72.441 39.0054C72.5105 38.103 72.5458 37.1915 72.547 36.2709C72.547 35.83 72.5384 35.3913 72.5214 34.9549Z" fill="white"/>
<path d="M60.7461 41.3193C58.3312 53.0416 47.6822 61.7953 35.1293 61.2313C22.0979 60.6468 11.6215 49.9329 11.2968 36.8912C10.955 22.8326 22.2927 11.2881 36.2744 11.2881C36.7649 11.2881 37.2485 11.3035 37.7322 11.3308C37.6861 11.8145 37.6536 12.305 37.6382 12.7989C37.1825 12.7693 36.7187 12.755 36.247 12.7562C24.0753 12.7715 13.792 22.2328 12.8332 34.367C11.7377 48.1948 22.679 59.7906 36.2744 59.7906C47.8292 59.7906 57.4665 51.4078 59.425 40.4067C59.8506 40.7314 60.2915 41.0373 60.7461 41.3193Z" fill="white"/>
<path d="M71.6857 44.0522C71.6876 44.0521 71.6895 44.0525 71.6912 44.0533C71.6929 44.0541 71.6944 44.0553 71.6956 44.0568C71.6968 44.0583 71.6976 44.0601 71.6979 44.062C71.6983 44.0638 71.6982 44.0658 71.6976 44.0676C68.1257 60.3377 53.5972 72.547 36.2744 72.547C16.2718 72.547 0 56.2736 0 36.271C0 16.2684 16.2718 1.52236e-05 36.2744 1.52236e-05C38.1704 -0.00172485 40.0635 0.145707 41.9364 0.440947C41.9385 0.441162 41.9405 0.441916 41.9422 0.443135C41.9439 0.444354 41.9452 0.445996 41.9461 0.447897C41.9469 0.449798 41.9473 0.451892 41.9471 0.453971C41.9469 0.45605 41.9462 0.458041 41.945 0.459747C40.9407 1.80477 40.0954 3.26144 39.4258 4.80071C39.424 4.80176 39.4219 4.80231 39.4198 4.80231C39.4177 4.80231 39.4157 4.80176 39.4139 4.80071C38.3782 4.70158 37.3323 4.64689 36.2744 4.64689C19.8249 4.65373 6.27217 17.275 4.78531 33.3417C2.95322 53.2246 20.1205 69.9903 39.9539 67.678C53.1443 66.1398 63.8805 56.4479 66.9841 43.789C66.9849 43.786 66.9866 43.7834 66.9891 43.7815C66.9916 43.7796 66.9947 43.7787 66.9978 43.7788C68.1091 43.9921 69.2381 44.0997 70.3697 44.1001C70.8123 44.1018 71.2499 44.0932 71.6857 44.0522Z" fill="white"/>
</g>
<defs>
<clipPath id="clip0_32_153">
<rect width="250" height="72.547" fill="white"/>
</clipPath>
</defs>
</svg>
