<svg width="15" height="15" viewBox="0 0 15 15" fill="none" xmlns="http://www.w3.org/2000/svg">
<path d="M11.2109 0.859375H3.78906C2.17354 0.859375 0.859375 2.17354 0.859375 3.78906V11.2109C0.859375 12.8265 2.17354 14.1406 3.78906 14.1406H11.2109C12.8265 14.1406 14.1406 12.8265 14.1406 11.2109V3.78906C14.1406 2.17354 12.8265 0.859375 11.2109 0.859375ZM7.5 11.1621C5.48069 11.1621 3.83789 9.51931 3.83789 7.5C3.83789 5.48069 5.48069 3.83789 7.5 3.83789C9.51931 3.83789 11.1621 5.48069 11.1621 7.5C11.1621 9.51931 9.51931 11.1621 7.5 11.1621ZM11.6992 4.0332C11.2947 4.0332 10.9668 3.70533 10.9668 3.30078C10.9668 2.89623 11.2947 2.56836 11.6992 2.56836C12.1038 2.56836 12.4316 2.89623 12.4316 3.30078C12.4316 3.70533 12.1038 4.0332 11.6992 4.0332Z" fill="white"/>
</svg>
